<svg id="Capa_1" enable-background="new 0 0 511.994 511.994" height="512" viewBox="0 0 511.994 511.994" width="512" xmlns="http://www.w3.org/2000/svg"><g><path d="m249.09 190.985c1.416 1.41 3.323 2.186 5.293 2.186.349 0 .699-.024 1.049-.074 2.328-.329 4.368-1.731 5.509-3.787l29.93-53.926c2.01-3.622.704-8.187-2.918-10.197-3.623-2.01-8.188-.704-10.197 2.918l-25.112 45.247-16.432-16.366c-2.936-2.922-7.685-2.915-10.606.021-2.924 2.935-2.914 7.683.021 10.606z"/><path d="m254.383 263.907c.349 0 .699-.024 1.049-.074 2.328-.329 4.368-1.731 5.509-3.787l29.93-53.926c2.01-3.622.704-8.187-2.918-10.197-3.623-2.011-8.188-.704-10.197 2.918l-25.112 45.247-16.432-16.366c-2.936-2.922-7.685-2.915-10.606.021-2.924 2.935-2.914 7.683.021 10.606l23.465 23.371c1.414 1.411 3.321 2.187 5.291 2.187z"/><path d="m48.417 173.62h23.89c4.143 0 7.5-3.358 7.5-7.5s-3.357-7.5-7.5-7.5h-23.89c-4.143 0-7.5 3.358-7.5 7.5s3.357 7.5 7.5 7.5z"/><path d="m102.267 173.62h80.391c4.143 0 7.5-3.358 7.5-7.5s-3.357-7.5-7.5-7.5h-80.391c-4.143 0-7.5 3.358-7.5 7.5s3.357 7.5 7.5 7.5z"/><path d="m182.661 229.692h-134.245c-4.143 0-7.5 3.358-7.5 7.5s3.357 7.5 7.5 7.5h134.245c4.143 0 7.5-3.358 7.5-7.5s-3.357-7.5-7.5-7.5z"/><path d="m510.783 433.861-20.485-102.308c-6.715-33.535-36.278-56.785-69.242-56.799l.013-.009h-101.589v-169.575c0-33.168-26.988-60.152-60.162-60.152h-10.69c-7.187-6.537-16.73-10.527-27.188-10.527h-12.118c-9.438-18.622-28.382-30.395-49.585-30.395s-40.147 11.772-49.586 30.395h-12.118c-10.458 0-20 3.99-27.187 10.527h-10.694c-33.168 0-60.152 26.984-60.152 60.152v237.378c0 33.173 26.984 60.161 60.152 60.161h91.89l-6.239 31.149c-6.692 33.458 15.075 66.124 48.516 72.814 4.017.807 8.118 1.217 12.188 1.217 19.392 0 37.896-9.275 49.499-24.812 2.479-3.318 1.798-8.018-1.521-10.497s-8.019-1.798-10.497 1.521c-8.786 11.764-22.798 18.788-37.481 18.788-3.08 0-6.187-.311-9.238-.924-25.338-5.069-41.827-29.816-36.758-55.163l20.491-102.3c2.919-14.582 11.341-27.153 23.715-35.399 12.373-8.246 27.218-11.178 41.8-8.259 16.111 3.221 29.899 13.321 37.83 27.71 7.932 14.391 9.108 31.446 3.227 46.792l-31.96 83.42c-1.481 3.868.453 8.205 4.32 9.687 3.87 1.483 8.206-.453 9.688-4.32l10.607-27.686h96.134l15.977 41.698c9.332 24.354 32.444 39.752 57.649 39.752 4.053 0 8.163-.398 12.274-1.222 33.452-6.697 55.217-39.362 48.52-72.814zm-412.75-384.37h16.956c3.074 0 5.837-1.876 6.971-4.733 6.188-15.588 21.016-25.661 37.777-25.661s31.589 10.073 37.776 25.661c1.134 2.857 3.896 4.733 6.971 4.733h16.956c14.029 0 25.442 11.413 25.442 25.442 0 14.028-11.413 25.441-25.442 25.441h-123.407c-14.028 0-25.441-11.413-25.441-25.441 0-14.029 11.413-25.442 25.441-25.442zm98.365 237.13c-5.965 3.975-11.202 8.746-15.612 14.144h-132.37c-4.143 0-7.5 3.358-7.5 7.5s3.357 7.5 7.5 7.5h123.017c-2.295 4.987-4.034 10.272-5.139 15.792l-11.248 56.153h-94.894c-24.897 0-45.152-20.259-45.152-45.161v-237.379c0-24.897 20.255-45.152 45.152-45.152h.302c-1.84 4.619-2.862 9.648-2.862 14.915 0 22.299 18.142 40.441 40.441 40.441h123.407c22.3 0 40.442-18.142 40.442-40.441 0-5.267-1.023-10.296-2.862-14.915h.298c24.902 0 45.162 20.255 45.162 45.152v169.575h-68.666c-13.93-.075-27.565 3.979-39.416 11.876zm89.577 124.827 15.605-40.733c7.466-19.48 5.973-41.131-4.097-59.4-4.673-8.479-10.964-15.765-18.393-21.569h98.409c-7.431 5.806-13.722 13.094-18.396 21.576-10.066 18.268-11.56 39.916-4.097 59.393l15.608 40.734h-84.639zm173.342 80.52c-22.488 4.502-44.766-7.773-52.971-29.189l-37.332-97.432c-5.879-15.343-4.703-32.396 3.227-46.787s21.719-24.495 37.83-27.721c30.1-6.031 59.491 13.56 65.518 43.659l20.485 102.308c5.074 25.342-11.415 50.087-36.757 55.162z"/><path d="m273.487 349.956c0-11.646-8.998-21.229-20.406-22.163-.935-11.408-10.519-20.407-22.163-20.407-11.646 0-21.229 8.999-22.163 20.407-11.409.933-20.407 10.517-20.407 22.163s8.998 21.229 20.407 22.163c.934 11.409 10.518 20.407 22.163 20.407s21.229-8.998 22.163-20.407c11.408-.935 20.406-10.518 20.406-22.163zm-22.237 7.237h-5.595c-4.143 0-7.5 3.358-7.5 7.5v5.595c0 3.991-3.247 7.237-7.237 7.237s-7.237-3.247-7.237-7.237v-5.595c0-4.142-3.357-7.5-7.5-7.5h-5.596c-3.99 0-7.237-3.247-7.237-7.237s3.247-7.238 7.237-7.238h5.596c4.143 0 7.5-3.358 7.5-7.5v-5.595c0-3.991 3.247-7.237 7.237-7.237s7.237 3.247 7.237 7.237v5.595c0 4.142 3.357 7.5 7.5 7.5h5.595c3.99 0 7.237 3.247 7.237 7.238s-3.247 7.237-7.237 7.237z"/><path d="m439.587 307.386c-12.262 0-22.237 9.976-22.237 22.237 0 12.262 9.976 22.238 22.237 22.238s22.237-9.976 22.237-22.238c0-12.261-9.975-22.237-22.237-22.237zm0 29.475c-3.99 0-7.237-3.247-7.237-7.238s3.247-7.237 7.237-7.237 7.237 3.247 7.237 7.237-3.247 7.238-7.237 7.238z"/><path d="m399.73 336.861c-12.262 0-22.237 9.976-22.237 22.237s9.976 22.237 22.237 22.237 22.237-9.976 22.237-22.237-9.975-22.237-22.237-22.237zm0 29.475c-3.99 0-7.237-3.247-7.237-7.237s3.247-7.237 7.237-7.237 7.237 3.247 7.237 7.237-3.246 7.237-7.237 7.237z"/><path d="m337.118 366.336h-17.658c-10.027 0-18.186 8.158-18.186 18.186 0 10.027 8.158 18.186 18.186 18.186h17.658c10.027 0 18.186-8.158 18.186-18.186s-8.158-18.186-18.186-18.186zm0 21.371h-17.658c-1.757 0-3.186-1.429-3.186-3.186s1.429-3.186 3.186-3.186h17.658c1.757 0 3.186 1.429 3.186 3.186s-1.429 3.186-3.186 3.186z"/></g></svg>