<svg height="512pt" viewBox="-3 0 512 512" width="512pt" xmlns="http://www.w3.org/2000/svg"><path d="m294.90625 315v92c0 57.898438 47.101562 105 105 105 58.449219 0 106-47.101562 106-105v-92c0-52.855469-39.628906-96.703125-91-103.945312v-121.054688c0-49.625-40.375-90-90-90s-90 40.375-90 90v332c0 33.085938-26.914062 60-60 60-33.082031 0-60-26.914062-60-60v-122h15c8.285156 0 15-6.714844 15-15 0-10.28125 0-59.820312 0-67.265625 0-27.105469 14.691406-52.175781 38.335938-65.425781l8.371093-4.691406c3.769531-2.109376 6.441407-5.746094 7.339844-9.96875.898437-4.226563-.070313-8.632813-2.652344-12.09375l-84.375-112.96875c-2.820312-3.777344-7.253906-6.007813-11.964843-6.023438-.019532 0-.035157 0-.054688 0-4.691406 0-9.117188 2.199219-11.953125 5.941406l-84.90625 112.027344c-2.59375 3.421875-3.597656 7.792969-2.753906 12.003906.839843 4.210938 3.445312 7.859375 7.15625 10.019532l9.214843 5.367187c23.589844 13.742187 38.242188 38.574219 38.242188 64.804687v68.273438c0 8.28125 6.714844 15 15 15h15v122c0 49.625 40.375 90 90 90s90-40.375 90-90v-332c0-33.085938 26.917969-60 60-60 33.085938 0 60 26.914062 60 60v121.074219c-50.816406 7.304687-90 51.121093-90 103.925781zm-180-45h-30v-30h30zm-77.832031-140.699219 47.832031-63.113281v83.8125c0 8.285156 6.714844 15 15 15s15-6.714844 15-15v-83.285156l47.285156 63.304687c-27.195312 17.898438-44.585937 47.519531-46.988281 79.980469h-30.527344c-2.171875-32.308594-19.863281-62.328125-47.601562-80.699219zm347.832031 112.207031v89.492188h-60v-16c0-36.21875 25.808594-66.523438 60-73.492188zm15 240.492188c-41.355469 0-75-33.644531-75-75v-46h151v46c0 41.355469-34.09375 75-76 75zm76-167v16h-61v-89.527344c34.746094 6.894532 61 37.238282 61 73.527344zm0 0"/><path d="m414.90625 422h-30c-8.285156 0-15 6.714844-15 15s6.714844 15 15 15h30c8.285156 0 15-6.714844 15-15s-6.714844-15-15-15zm0 0"/></svg>